<svg class="animated" id="freepik_stories-id-card" xmlns="http://www.w3.org/2000/svg" viewBox="0 0 500 500" version="1.1" xmlns:xlink="http://www.w3.org/1999/xlink" xmlns:svgjs="http://svgjs.com/svgjs"><style>svg#freepik_stories-id-card:not(.animated) .animable {opacity: 0;}svg#freepik_stories-id-card.animated #freepik--id-card--inject-50 {animation: 1.5s Infinite  linear floating;animation-delay: 0s;}svg#freepik_stories-id-card.animated #freepik--Character--inject-50 {animation: 1.5s Infinite  linear floating;animation-delay: 0s;}            @keyframes floating {                0% {                    opacity: 1;                    transform: translateY(0px);                }                50% {                    transform: translateY(-10px);                }                100% {                    opacity: 1;                    transform: translateY(0px);                }            }        </style><g id="freepik--background-complete--inject-50" class="animable" style="transform-origin: 250px 206.11px;"><g id="freepik--u5Zjqx--inject-50" class="animable" style="transform-origin: 250.018px 95.73px;"><path d="M256.61,141.94c-1.36-1.38-2.73-2.75-4.1-4.13l-2.35-2.34c10.76-11.08,16.5-24.28,16.5-39.73s-5.72-28.65-16.54-39.82c.77-.73,1.56-1.47,2.33-2.23q2.06-2,4.09-4.07a.47.47,0,0,0,.07-.12h.1a3.61,3.61,0,0,0,.25.3c1.54,1.74,3.14,3.43,4.62,5.22a61.82,61.82,0,0,1,7.69,12.06,61.19,61.19,0,0,1,5.37,16c.49,2.64.74,5.32,1.06,8,.12.91.14,6.81.12,7-.13,1.82-.21,3.64-.41,5.45a61.65,61.65,0,0,1-3.5,14.67,64.09,64.09,0,0,1-4.65,9.93,61.65,61.65,0,0,1-6.63,9.47c-1.27,1.49-2.61,2.91-3.92,4.36Z" style="fill: rgb(235, 235, 235); transform-origin: 262.973px 95.73px;" id="el9re1i43d6y9" class="animable"></path><path d="M237.2,69l6.47-6.52A45.93,45.93,0,0,1,257,89c2.09,15.43-2.59,28.67-13.22,39.9-2.21-2.21-4.35-4.37-6.52-6.55a37.15,37.15,0,0,0,11-26.67C248.26,85.31,244.39,76.44,237.2,69Z" style="fill: rgb(235, 235, 235); transform-origin: 247.343px 95.69px;" id="el50czs4wp46h" class="animable"></path><path d="M230.69,115.86l-6.48-6.49a19.28,19.28,0,0,0,0-27.33l6.48-6.48A28.32,28.32,0,0,1,230.69,115.86Z" style="fill: rgb(235, 235, 235); transform-origin: 231.66px 95.71px;" id="elvfycjycbyz9" class="animable"></path></g><g id="el9yzqhugj1yg"><rect x="414.79" y="337.42" width="26.48" height="11.19" style="fill: rgb(235, 235, 235); transform-origin: 428.03px 343.015px; transform: rotate(180deg);" class="animable"></rect></g><g id="elcdd3rgawq0i"><rect x="429.56" y="351.53" width="26.48" height="11.19" style="fill: rgb(235, 235, 235); transform-origin: 442.8px 357.125px; transform: rotate(180deg);" class="animable"></rect></g><g id="elanany1t5dpl"><rect x="400.02" y="351.53" width="26.48" height="11.19" style="fill: rgb(235, 235, 235); transform-origin: 413.26px 357.125px; transform: rotate(180deg);" class="animable"></rect></g><g id="el04w2yzqfbebf"><rect x="58.73" y="351.53" width="26.48" height="11.19" style="fill: rgb(235, 235, 235); transform-origin: 71.97px 357.125px; transform: rotate(180deg);" class="animable"></rect></g><g id="elv04fdxa9c8s"><rect x="58.73" y="49.58" width="26.48" height="11.19" style="fill: rgb(235, 235, 235); transform-origin: 71.97px 55.175px; transform: rotate(180deg);" class="animable"></rect></g><g id="el070o8dofp36"><rect x="43.96" y="63.69" width="26.48" height="11.19" style="fill: rgb(235, 235, 235); transform-origin: 57.2px 69.285px; transform: rotate(180deg);" class="animable"></rect></g><g id="elx7jtlwyf1i"><rect x="429.56" y="49.59" width="26.48" height="11.19" style="fill: rgb(235, 235, 235); transform-origin: 442.8px 55.185px; transform: rotate(180deg);" class="animable"></rect></g><rect x="356.6" y="182.73" width="26.48" height="11.19" style="fill: rgb(235, 235, 235); transform-origin: 369.84px 188.325px;" id="el4yzeziq1f04" class="animable"></rect><rect x="341.83" y="168.62" width="26.48" height="11.19" style="fill: rgb(235, 235, 235); transform-origin: 355.07px 174.215px;" id="el4ekmr4fk6nb" class="animable"></rect></g><g id="freepik--Shadow--inject-50" class="animable" style="transform-origin: 256.6px 441.78px;"><path d="M456,441.78c0,11.35-89.28,20.56-199.42,20.56S57.2,453.13,57.2,441.78s89.28-20.56,199.42-20.56S456,430.43,456,441.78Z" style="fill: rgb(235, 235, 235); transform-origin: 256.6px 441.78px;" id="el2lvx9u7zjnf" class="animable"></path></g><g id="freepik--Floor--inject-50" class="animable" style="transform-origin: 250px 418.55px;"><polygon points="39.45 418.55 92.09 418.31 144.73 418.22 250 418.05 355.27 418.22 407.91 418.31 460.55 418.55 407.91 418.8 355.27 418.88 250 419.05 144.73 418.88 92.09 418.8 39.45 418.55" style="fill: rgb(38, 50, 56); transform-origin: 250px 418.55px;" id="elesdzopnlgph" class="animable"></polygon></g><g id="freepik--Device--inject-50" class="animable" style="transform-origin: 138.54px 172.255px;"><rect x="66.07" y="60.54" width="144.94" height="223.43" style="fill: rgb(55, 71, 79); transform-origin: 138.54px 172.255px;" id="ell9t0zhr0zq" class="animable"></rect><polygon points="200 60.54 179.28 283.97 97.79 283.97 77.07 60.54 200 60.54" style="fill: rgb(69, 90, 100); transform-origin: 138.535px 172.255px;" id="elcfloswmgqgj" class="animable"></polygon><rect x="126.96" y="259.98" width="23.17" height="8.66" style="fill: rgb(166, 166, 166); transform-origin: 138.545px 264.31px;" id="el8q83wextrq" class="animable"></rect><rect x="88.34" y="259.98" width="23.17" height="8.66" style="fill: rgb(255, 199, 39); transform-origin: 99.925px 264.31px;" id="elntvuk0ss3j8" class="animable"></rect><rect x="165.57" y="259.98" width="23.17" height="8.66" style="fill: rgb(166, 166, 166); transform-origin: 177.155px 264.31px;" id="ela5no9ljiftn" class="animable"></rect><rect x="113.1" y="85.04" width="2.99" height="27.09" style="fill: rgb(55, 71, 79); transform-origin: 114.595px 98.585px;" id="elouxht4bjoep" class="animable"></rect><rect x="119.09" y="85.04" width="2.99" height="27.09" style="fill: rgb(55, 71, 79); transform-origin: 120.585px 98.585px;" id="elksn8st87l4n" class="animable"></rect><rect x="125.07" y="85.04" width="2.99" height="27.09" style="fill: rgb(55, 71, 79); transform-origin: 126.565px 98.585px;" id="elch1x39bbsv9" class="animable"></rect><rect x="131.06" y="85.04" width="2.99" height="27.09" style="fill: rgb(55, 71, 79); transform-origin: 132.555px 98.585px;" id="elfwxo7z5x2e" class="animable"></rect><rect x="137.04" y="85.04" width="2.99" height="27.09" style="fill: rgb(55, 71, 79); transform-origin: 138.535px 98.585px;" id="elbqh8n8h30m6" class="animable"></rect><rect x="143.03" y="85.04" width="2.99" height="27.09" style="fill: rgb(55, 71, 79); transform-origin: 144.525px 98.585px;" id="elgnj7f5iqjcm" class="animable"></rect><rect x="149.01" y="85.04" width="2.99" height="27.09" style="fill: rgb(55, 71, 79); transform-origin: 150.505px 98.585px;" id="el3lvt3o3ypo1" class="animable"></rect><rect x="155" y="85.04" width="2.99" height="27.09" style="fill: rgb(55, 71, 79); transform-origin: 156.495px 98.585px;" id="elvvfxk5kzed" class="animable"></rect><rect x="160.99" y="85.04" width="2.99" height="27.09" style="fill: rgb(55, 71, 79); transform-origin: 162.485px 98.585px;" id="eljrsm56vwvb9" class="animable"></rect></g><g id="freepik--id-card--inject-50" class="animable" style="transform-origin: 294.696px 252.665px;"><path d="M142.39,147.52V441.78h194V147.52ZM262.31,168.6H216.48v-8.22h45.83Z" style="fill: rgb(235, 235, 235); transform-origin: 239.39px 294.65px;" id="elp8e0e2ytfe" class="animable"></path><polygon points="336.4 224.74 336.4 441.78 142.39 441.78 142.39 335.73 336.4 224.74" style="fill: rgb(255, 199, 39); transform-origin: 239.395px 333.26px;" id="elrmui6y9hxf" class="animable"></polygon><g id="elmjtw1kvbvfd"><polygon points="336.4 224.74 336.4 441.78 142.39 441.78 142.39 335.73 336.4 224.74" style="opacity: 0.1; transform-origin: 239.395px 333.26px;" class="animable"></polygon></g><polygon points="336.4 189.2 336.4 210.83 142.39 321.69 142.39 320.98 336.4 189.2" style="fill: rgb(255, 199, 39); transform-origin: 239.395px 255.445px;" id="eltv1k5qf032d" class="animable"></polygon><rect x="171.82" y="188.51" width="135.16" height="161.67" style="fill: rgb(255, 255, 255); transform-origin: 239.4px 269.345px;" id="eld6d1f5zwbm" class="animable"></rect><path d="M227,160.38h7.47s.41,4.28,3.8,4.92,8.56-2.06,13-10.7,1.93-16.47.92-16.91-9.33,1.4-14.87,9.83h-8.76A36.75,36.75,0,0,1,236.85,137c6-5.45,11.4-7.37,13.77-7.59l5.57-6.21,9.57,8,4.56.65-5.73,8.92a38,38,0,0,1-.81,7.63,46.44,46.44,0,0,1-6.9,13.32c-2.79,3.51-7.47,8.84-15.79,8.68S228.62,165.3,227,160.38Z" style="fill: rgb(69, 90, 100); transform-origin: 248.66px 146.802px;" id="elq1e3um3n1fp" class="animable"></path><polygon points="256.19 123.2 265.76 131.19 270.32 131.84 260.66 123.68 256.19 123.2" style="fill: rgb(38, 50, 56); transform-origin: 263.255px 127.52px;" id="elgasquwfak3e" class="animable"></polygon><path d="M252.19,137.69c-1-.45-9.33,1.4-14.87,9.83h-2.71C242.39,136.71,251.06,136.3,252.19,137.69Z" style="fill: rgb(55, 71, 79); transform-origin: 243.4px 142.319px;" id="elhqy843fwur5" class="animable"></path><path d="M238.27,165.3s-4.24.84-6-4.92h2.24s.39,4.07,3.56,4.86Z" style="fill: rgb(55, 71, 79); transform-origin: 235.27px 162.861px;" id="elym0cxau8x4" class="animable"></path><path d="M270.32,131.84l-5.74,8.92a38.35,38.35,0,0,1-.8,7.62c-.8,3.24-4.12,9.81-6.9,13.33s-7.47,8.83-15.79,8.68a18.35,18.35,0,0,1-3.7-.42l.15,0c9.6,1.39,15.48-5,20.16-13.32,4.37-7.76,3.1-17.4,3.1-17.4l5-8.08Z" style="fill: rgb(55, 71, 79); transform-origin: 253.855px 150.782px;" id="elmu4mlilqi0n" class="animable"></path><g id="elva76dvc4dq"><rect x="257.2" y="124.94" width="14.29" height="2.75" style="fill: rgb(69, 90, 100); transform-origin: 264.345px 126.315px; transform: rotate(38.51deg);" class="animable"></rect></g><path d="M297.85,114.15c-2.34-1.77-24.38-15.91-30.11-19.45s-10.18-6.38-12.92-3.16-3.92,10.74-2.47,13.93S260.07,119,260.21,120a1.94,1.94,0,0,1-.56,1.6l10.19,8.35a3.17,3.17,0,0,1,1.68-1.28c1-.2,17.86.71,19.55.63a12.8,12.8,0,0,0,10.81-5.4C305.6,118.51,300.19,115.93,297.85,114.15ZM289.42,124c-5-.07-13.5-1.22-19.91-5.47-3.38-2.25-12.23-10.44-13-16.37a10,10,0,0,1,1.5-5.81c.93-1.66,6.25,2.18,10.57,5s23.21,15.46,24.67,16.47,3.8,2.32,3.67,3.12S294.38,124.05,289.42,124Z" style="fill: rgb(69, 90, 100); transform-origin: 277.438px 110.041px;" id="eln0natya7vfl" class="animable"></path><g id="el7f7vnpf8e"><rect x="264.54" y="116.2" width="12.65" height="3.84" style="fill: rgb(69, 90, 100); transform-origin: 270.865px 118.12px; transform: rotate(33.29deg);" class="animable"></rect></g><path d="M301.88,123.84a12.84,12.84,0,0,1-10.81,5.42c-1.69.07-18.58-.84-19.55-.63a3.08,3.08,0,0,0-1.68,1.27L266.27,127c.2,0,1.46-1.58,2.65-1.66s19.36,2.7,23.81,2.7,8.12-4,9.2-6.76c1.22-3.13-3.8-6.81-4.06-7.08C300.21,115.94,305.6,118.52,301.88,123.84Z" style="fill: rgb(55, 71, 79); transform-origin: 284.711px 122.05px;" id="elymrrilrhbr" class="animable"></path><path d="M200.14,368.74H196.5l-.74,1.95a.84.84,0,0,1-.78.53.87.87,0,0,1-.28-.05.85.85,0,0,1-.5-1.08l3.32-8.83a.86.86,0,0,1,1.59,0l3.31,8.83a.85.85,0,0,1-.49,1.08.84.84,0,0,1-.29.05.81.81,0,0,1-.76-.53Zm-.61-1.65-1.22-3.22-1.21,3.22Z" style="fill: rgb(38, 50, 56); transform-origin: 198.311px 365.974px;" id="eljue1pfrygoe" class="animable"></path><path d="M206.13,370.39a.84.84,0,0,1-.81.83.83.83,0,0,1-.83-.83v-8.73a.85.85,0,0,1,.33-.69.83.83,0,0,1,1.14.18l4.85,6.71v-6.18a.81.81,0,0,1,.81-.81.82.82,0,0,1,.82.81v8.71a.83.83,0,0,1-.82.83.82.82,0,0,1-.62-.3.28.28,0,0,1-.07-.09l-4.8-6.66Z" style="fill: rgb(38, 50, 56); transform-origin: 208.465px 366.02px;" id="elgchsmpm7yfu" class="animable"></path><path d="M217.2,370.39a.84.84,0,0,1-.81.83.83.83,0,0,1-.83-.83v-8.73a.85.85,0,0,1,.33-.69.83.83,0,0,1,1.14.18l4.85,6.71v-6.18a.81.81,0,0,1,.81-.81.82.82,0,0,1,.82.81v8.71a.83.83,0,0,1-.82.83.82.82,0,0,1-.62-.3.28.28,0,0,1-.07-.09l-4.8-6.66Z" style="fill: rgb(38, 50, 56); transform-origin: 219.535px 366.02px;" id="eln344qit28zn" class="animable"></path><path d="M226.14,370.39v-8.85a.81.81,0,0,1,.82-.82h4.91a.83.83,0,0,1,.82.82.84.84,0,0,1-.82.84H227.8v2.75h3.5a.84.84,0,0,1,.82.82.83.83,0,0,1-.82.84h-3.5v2.76h4.07a.84.84,0,0,1,0,1.67H227s0,0,0,0l0,0A.83.83,0,0,1,226.14,370.39Z" style="fill: rgb(38, 50, 56); transform-origin: 229.415px 365.97px;" id="elfbsqq660ml6" class="animable"></path><path d="M239.2,368.61a.79.79,0,0,1,1.1-.11,4.93,4.93,0,0,0,2.86,1.16,3.25,3.25,0,0,0,1.88-.56,1.34,1.34,0,0,0,.64-1.08.86.86,0,0,0-.13-.48,1.47,1.47,0,0,0-.45-.45,6,6,0,0,0-2.06-.7h0a8.39,8.39,0,0,1-1.93-.59,3.21,3.21,0,0,1-1.4-1.17,2.34,2.34,0,0,1-.34-1.23,2.77,2.77,0,0,1,1.2-2.19,4.42,4.42,0,0,1,2.59-.79,5.82,5.82,0,0,1,3.27,1.2.76.76,0,0,1,.21,1.06.75.75,0,0,1-1.06.23,4.37,4.37,0,0,0-2.42-1,2.89,2.89,0,0,0-1.68.51,1.21,1.21,0,0,0-.57.94.69.69,0,0,0,.11.42,1.35,1.35,0,0,0,.4.39,5.2,5.2,0,0,0,1.88.66h0a9.15,9.15,0,0,1,2.07.63,3.54,3.54,0,0,1,1.5,1.25,2.47,2.47,0,0,1,.36,1.27,2.91,2.91,0,0,1-1.29,2.33,4.7,4.7,0,0,1-2.78.85,6.42,6.42,0,0,1-3.84-1.5A.8.8,0,0,1,239.2,368.61Z" style="fill: rgb(38, 50, 56); transform-origin: 243.143px 365.79px;" id="elgfiks6ca7e" class="animable"></path><path d="M258.57,361.54v8.85a.85.85,0,0,1-.84.83.83.83,0,0,1-.83-.83v-6.31l-2.16,3a.81.81,0,0,1-.67.34h0a.85.85,0,0,1-.69-.34l-2.15-3v6.31a.83.83,0,1,1-1.66,0v-8.85a.82.82,0,0,1,.82-.82h0a.82.82,0,0,1,.66.34l3,4.14,3-4.14a.81.81,0,0,1,.67-.34h0A.85.85,0,0,1,258.57,361.54Z" style="fill: rgb(38, 50, 56); transform-origin: 254.07px 365.97px;" id="el0efdwrcg5vpb" class="animable"></path><path d="M262.3,361.54a.81.81,0,0,1,.83-.82.83.83,0,0,1,.84.82v8.85a.84.84,0,0,1-.84.83.82.82,0,0,1-.83-.83Z" style="fill: rgb(38, 50, 56); transform-origin: 263.135px 365.97px;" id="eldmi9t1jtnje" class="animable"></path><path d="M273.19,362.38h-2.38v8a.83.83,0,1,1-1.65,0v-8h-2.37a.84.84,0,0,1-.83-.84.81.81,0,0,1,.83-.82h6.4a.83.83,0,0,1,.83.82A.85.85,0,0,1,273.19,362.38Z" style="fill: rgb(38, 50, 56); transform-origin: 269.99px 366.01px;" id="eled2p85gv0ng" class="animable"></path><path d="M276.49,370.39v-8.85a.81.81,0,0,1,.83-.82.83.83,0,0,1,.84.82v3.6H282v-3.6a.81.81,0,0,1,.83-.82.83.83,0,0,1,.84.82v8.85a.83.83,0,0,1-.84.83.82.82,0,0,1-.83-.83v-3.6h-3.88v3.6a.83.83,0,0,1-.84.83A.82.82,0,0,1,276.49,370.39Z" style="fill: rgb(38, 50, 56); transform-origin: 280.08px 365.97px;" id="elyd5os0zprzc" class="animable"></path><path d="M193.79,393.12a.49.49,0,0,1,.49-.5.51.51,0,0,1,.51.5v5.31a.5.5,0,0,1-.51.49.48.48,0,0,1-.49-.49Z" style="fill: rgb(38, 50, 56); transform-origin: 194.29px 395.77px;" id="elqahg4vdx5oe" class="animable"></path><path d="M196.47,398.43v-5.31a.49.49,0,0,1,.49-.5H198a3.15,3.15,0,0,1,0,6.3H197A.48.48,0,0,1,196.47,398.43Zm1-.51H198a2.15,2.15,0,0,0,0-4.3h-.56Z" style="fill: rgb(38, 50, 56); transform-origin: 198.81px 395.771px;" id="elrgt1vlxdy7" class="animable"></path><path d="M206.63,398.43a.5.5,0,0,1-.49.49.48.48,0,0,1-.49-.49V393.2h0a.46.46,0,0,1,.2-.41.49.49,0,0,1,.68.1l2.91,4V393.2a.49.49,0,0,1,.48-.49.51.51,0,0,1,.5.49v5.23a.5.5,0,0,1-.5.49.49.49,0,0,1-.37-.18l0-.05-2.88-4Z" style="fill: rgb(38, 50, 56); transform-origin: 208.035px 395.808px;" id="elaebwenybhsd" class="animable"></path><path d="M212.89,398.27a2.3,2.3,0,0,1-.62-1.59,2.34,2.34,0,0,1,.62-1.57,2.1,2.1,0,0,1,1.55-.69,1.94,1.94,0,0,1,1.5.69,2.22,2.22,0,0,1,.64,1.57,2.19,2.19,0,0,1-.64,1.59,2,2,0,0,1-1.5.68A2.12,2.12,0,0,1,212.89,398.27Zm.36-1.59a1.47,1.47,0,0,0,.33,1,1.23,1.23,0,0,0,.86.33,1.21,1.21,0,0,0,.83-.33,1.43,1.43,0,0,0,.35-1,1.35,1.35,0,0,0-.35-.93,1.27,1.27,0,0,0-.83-.35,1.29,1.29,0,0,0-.86.35A1.39,1.39,0,0,0,213.25,396.68Z" style="fill: rgb(38, 50, 56); transform-origin: 214.425px 396.685px;" id="elfz71dj5hvt7" class="animable"></path><path d="M218.49,397.65a.67.67,0,1,1,0,1.34.67.67,0,1,1,0-1.34Z" style="fill: rgb(38, 50, 56); transform-origin: 218.49px 398.32px;" id="ellqutneu7uab" class="animable"></path><path d="M224.31,393.12v5.31a.49.49,0,0,1-.5.49.49.49,0,0,1-.5-.49V394l-.36.21a.48.48,0,0,1-.67-.18.49.49,0,0,1,.16-.68l1.11-.66h0l0,0h.29s0,0,.05,0h0l.05,0,0,0,0,0,0,0s0,0,0,0l0,0v0s0,0,0,.05l0,0a.43.43,0,0,0,0,0,.13.13,0,0,0,0,.06Z" style="fill: rgb(38, 50, 56); transform-origin: 223.257px 395.805px;" id="elvda2526c4v" class="animable"></path><path d="M229.53,398.43a.49.49,0,0,1-.5.49h-3.2a.47.47,0,0,1-.37-.16.5.5,0,0,1,0-.7l2.67-2.41a1.17,1.17,0,0,0-.79-2,1.19,1.19,0,0,0-.78.3l-.28.25a.48.48,0,0,1-.7,0,.49.49,0,0,1,0-.7l.28-.25a2.09,2.09,0,0,1,1.44-.56,2.22,2.22,0,0,1,1.61.71,2.15,2.15,0,0,1-.16,3.05l-1.7,1.54H229A.5.5,0,0,1,229.53,398.43Z" style="fill: rgb(38, 50, 56); transform-origin: 227.424px 395.805px;" id="eloo9is9686p" class="animable"></path><path d="M235.31,397.25a.49.49,0,0,1-.5.49h-.09v.69a.49.49,0,0,1-.5.49.48.48,0,0,1-.49-.49v-.69h-2.84a.42.42,0,0,1-.3-.1.48.48,0,0,1-.08-.7l3.33-4.14s0,0,0,0l0,0,.05,0,0,0H234s0,0,0,0l.06,0h.23l0,0h0l0,0,0,0h0l0,0,0,0,0,0,0,.05a0,0,0,0,0,0,0l0,.06v0a.09.09,0,0,1,0,.05s0,0,0,0v3.66h.09A.5.5,0,0,1,235.31,397.25Zm-1.58-2.72-1.79,2.22h1.79Z" style="fill: rgb(38, 50, 56); transform-origin: 232.9px 395.86px;" id="el5t4jr792ij8" class="animable"></path><path d="M239.79,395.11a2.17,2.17,0,0,1,.66,1.58,2.23,2.23,0,0,1-.66,1.58,2.18,2.18,0,0,1-1.57.65h0a2.19,2.19,0,0,1-1.57-.65.51.51,0,1,1,.72-.72,1.22,1.22,0,0,0,.87.36,1.19,1.19,0,0,0,.85-.36,1.21,1.21,0,0,0,.36-.86,1.14,1.14,0,0,0-.36-.86,1.13,1.13,0,0,0-.85-.35,1.18,1.18,0,0,0-.87.35.51.51,0,0,1-.72,0l-.09-.12s0,0,0,0a.08.08,0,0,0,0,0,.35.35,0,0,0,0-.06v0a.43.43,0,0,1,0-.16l.27-2.33a.56.56,0,0,1,.23-.36l0,0h0a.44.44,0,0,1,.23-.06h2.66a.51.51,0,0,1,0,1h-2.22l-.1.89a2.41,2.41,0,0,1,.6-.08A2.19,2.19,0,0,1,239.79,395.11Z" style="fill: rgb(38, 50, 56); transform-origin: 238.464px 395.83px;" id="elf4tck2m4klr" class="animable"></path><path d="M245.24,395.11a2.21,2.21,0,0,1,.66,1.58,2.27,2.27,0,0,1-.66,1.58,2.2,2.2,0,0,1-1.58.65h0a2.18,2.18,0,0,1-1.57-.65.49.49,0,0,1,0-.72.51.51,0,0,1,.72,0,1.18,1.18,0,0,0,.86.36,1.2,1.2,0,0,0,.86-.36,1.26,1.26,0,0,0,.36-.86,1.18,1.18,0,0,0-.36-.86,1.13,1.13,0,0,0-.86-.35,1.16,1.16,0,0,0-.86.35.51.51,0,0,1-.72,0l-.1-.12s0,0,0,0a.08.08,0,0,0,0,0,.35.35,0,0,0,0-.06v0a.43.43,0,0,1,0-.16l.27-2.33a.51.51,0,0,1,.22-.36l0,0h0a.5.5,0,0,1,.24-.06h2.65a.51.51,0,1,1,0,1h-2.21l-.11.89a2.54,2.54,0,0,1,.6-.08A2.21,2.21,0,0,1,245.24,395.11Z" style="fill: rgb(38, 50, 56); transform-origin: 243.956px 395.825px;" id="elvwu4t9jvyl" class="animable"></path><path d="M251.58,396.78a2.16,2.16,0,1,1-3.34-1.79,1.45,1.45,0,0,1-.3-.89,1.49,1.49,0,0,1,3,0,1.45,1.45,0,0,1-.3.89A2.15,2.15,0,0,1,251.58,396.78Zm-1,0a1.17,1.17,0,0,0-1.16-1.17,1.17,1.17,0,1,0,0,2.33A1.16,1.16,0,0,0,250.59,396.78Zm-1.67-2.68a.51.51,0,1,0,.51-.5A.51.51,0,0,0,248.92,394.1Z" style="fill: rgb(38, 50, 56); transform-origin: 249.42px 395.78px;" id="elzeu6ygwg6b9" class="animable"></path><path d="M257.1,398.43a.48.48,0,0,1-.49.49H253.4a.49.49,0,0,1-.37-.16.49.49,0,0,1,0-.7l2.66-2.41a1.18,1.18,0,0,0,.08-1.65,1.13,1.13,0,0,0-.86-.38,1.16,1.16,0,0,0-.78.3l-.28.25a.48.48,0,0,1-.7,0,.49.49,0,0,1,0-.7l.28-.25a2.13,2.13,0,0,1,1.45-.56,2.18,2.18,0,0,1,1.6.71,2.16,2.16,0,0,1-.15,3.05l-1.7,1.54h1.92A.5.5,0,0,1,257.1,398.43Z" style="fill: rgb(38, 50, 56); transform-origin: 254.992px 395.79px;" id="ele5vase5tzqm" class="animable"></path><path d="M262.24,393.31,260,398.63a.46.46,0,0,1-.46.29.44.44,0,0,1-.19,0,.52.52,0,0,1-.27-.65l1.95-4.62h-2.33a.5.5,0,0,1-.49-.5.49.49,0,0,1,.49-.5h3.18a1.46,1.46,0,0,1,.19.07l0,0s0,0,0,0l0,0,0,0,0,0s0,0,0,.05,0,0,0,0l0,0a.67.67,0,0,1,0,.2Z" style="fill: rgb(38, 50, 56); transform-origin: 260.225px 395.79px;" id="el6qqrrh5h16y" class="animable"></path><path d="M266.72,395.1a2.2,2.2,0,0,1,.66,1.57,2.23,2.23,0,0,1-3.82,1.59.51.51,0,1,1,.72-.72,1.23,1.23,0,0,0,.86.35,1.24,1.24,0,0,0,.86-.35,1.19,1.19,0,0,0,.36-.87,1.14,1.14,0,0,0-.36-.85,1.21,1.21,0,0,0-.85-.36.46.46,0,0,1-.37-.16h0a.51.51,0,0,1,0-.72l.92-.94h-1.46a.5.5,0,0,1-.5-.51.5.5,0,0,1,.5-.51h2.66a.51.51,0,0,1,.51.51.61.61,0,0,1-.06.24l-.09.13-1.14,1.17A1.84,1.84,0,0,1,266.72,395.1Z" style="fill: rgb(38, 50, 56); transform-origin: 265.399px 395.773px;" id="el65ipodnuqja" class="animable"></path><path d="M268.76,394.8a2.19,2.19,0,0,1,4.36-.22h0c0,.17,0,.35,0,.52a5.13,5.13,0,0,1-.32,1.84,3.08,3.08,0,0,1-1.16,1.54,2.63,2.63,0,0,1-1.35.43.51.51,0,0,1-.52-.48.52.52,0,0,1,.49-.52,1.58,1.58,0,0,0,.84-.26,1.75,1.75,0,0,0,.57-.63l.12-.23a2.12,2.12,0,0,1-.87.18A2.19,2.19,0,0,1,268.76,394.8Zm1,0a1.19,1.19,0,1,0,2.37,0,1.19,1.19,0,0,0-2.37,0Z" style="fill: rgb(38, 50, 56); transform-origin: 270.94px 395.794px;" id="el2tmsdep0bb6" class="animable"></path><path d="M274.53,395.77a3.84,3.84,0,0,1,.62-2.15,2,2,0,0,1,1.67-1,2,2,0,0,1,1.67,1,4.15,4.15,0,0,1,0,4.3,2.07,2.07,0,0,1-1.67,1,2,2,0,0,1-1.67-1A3.84,3.84,0,0,1,274.53,395.77Zm3.56,0a3,3,0,0,0-.43-1.6,1,1,0,0,0-.84-.55,1.1,1.1,0,0,0-.86.55,3.19,3.19,0,0,0,0,3.2,1.12,1.12,0,0,0,.86.55,1.06,1.06,0,0,0,.84-.55A3,3,0,0,0,278.09,395.77Z" style="fill: rgb(38, 50, 56); transform-origin: 276.81px 395.77px;" id="elajev38qx4au" class="animable"></path><path d="M285.14,396.78A2.16,2.16,0,1,1,281.8,395a1.45,1.45,0,0,1-.3-.89,1.49,1.49,0,0,1,3,0,1.45,1.45,0,0,1-.3.89A2.15,2.15,0,0,1,285.14,396.78Zm-1,0a1.18,1.18,0,0,0-1.17-1.17,1.17,1.17,0,1,0,0,2.33A1.17,1.17,0,0,0,284.16,396.78Zm-1.68-2.68a.51.51,0,1,0,.51-.5A.51.51,0,0,0,282.48,394.1Z" style="fill: rgb(38, 50, 56); transform-origin: 282.98px 395.79px;" id="elhvck0zxbrs9" class="animable"></path><rect x="194.04" y="405.47" width="3.24" height="20.28" style="fill: rgb(38, 50, 56); transform-origin: 195.66px 415.61px;" id="elgcnowqrwsu" class="animable"></rect><rect x="204.3" y="405.47" width="3.24" height="20.28" style="fill: rgb(38, 50, 56); transform-origin: 205.92px 415.61px;" id="elwji1efmta5" class="animable"></rect><rect x="212.93" y="405.47" width="3.24" height="20.28" style="fill: rgb(38, 50, 56); transform-origin: 214.55px 415.61px;" id="elxkdw12wbz5e" class="animable"></rect><rect x="217.08" y="405.47" width="3.24" height="20.28" style="fill: rgb(38, 50, 56); transform-origin: 218.7px 415.61px;" id="eloantuhwv2em" class="animable"></rect><rect x="200.98" y="405.47" width="0.81" height="20.28" style="fill: rgb(38, 50, 56); transform-origin: 201.385px 415.61px;" id="eldhiqq07h3v" class="animable"></rect><rect x="283.95" y="405.47" width="0.81" height="20.28" style="fill: rgb(38, 50, 56); transform-origin: 284.355px 415.61px;" id="el9hxkr0xknec" class="animable"></rect><rect x="211.12" y="405.47" width="0.81" height="20.28" style="fill: rgb(38, 50, 56); transform-origin: 211.525px 415.61px;" id="elp0jqw59hio" class="animable"></rect><rect x="233.89" y="405.47" width="0.81" height="20.28" style="fill: rgb(38, 50, 56); transform-origin: 234.295px 415.61px;" id="elfpuyuuvb5po" class="animable"></rect><rect x="202.56" y="405.47" width="0.81" height="20.28" style="fill: rgb(38, 50, 56); transform-origin: 202.965px 415.61px;" id="elmb6fvo9mfx" class="animable"></rect><rect x="198.39" y="405.47" width="1.62" height="20.28" style="fill: rgb(38, 50, 56); transform-origin: 199.2px 415.61px;" id="el3ondhbhdca9" class="animable"></rect><rect x="238.38" y="405.47" width="3.24" height="20.28" style="fill: rgb(38, 50, 56); transform-origin: 240px 415.61px;" id="elbhdrmaq68ne" class="animable"></rect><rect x="245.32" y="405.47" width="0.81" height="20.28" style="fill: rgb(38, 50, 56); transform-origin: 245.725px 415.61px;" id="elxu96wkf7c8k" class="animable"></rect><rect x="246.9" y="405.47" width="0.81" height="20.28" style="fill: rgb(38, 50, 56); transform-origin: 247.305px 415.61px;" id="el9gk3dow02hp" class="animable"></rect><rect x="242.73" y="405.47" width="1.62" height="20.28" style="fill: rgb(38, 50, 56); transform-origin: 243.54px 415.61px;" id="el059x91rd21ms" class="animable"></rect><rect x="248.64" y="405.47" width="1.62" height="20.28" style="fill: rgb(38, 50, 56); transform-origin: 249.45px 415.61px;" id="elwmfomviiq4" class="animable"></rect><rect x="251.25" y="405.47" width="1.62" height="20.28" style="fill: rgb(38, 50, 56); transform-origin: 252.06px 415.61px;" id="elbaxuku3b34f" class="animable"></rect><rect x="229.63" y="405.47" width="3.24" height="20.28" style="fill: rgb(38, 50, 56); transform-origin: 231.25px 415.61px;" id="eld2jh6qigftf" class="animable"></rect><rect x="253.91" y="405.47" width="3.24" height="20.28" style="fill: rgb(38, 50, 56); transform-origin: 255.53px 415.61px;" id="elnzizklokb1" class="animable"></rect><rect x="226.31" y="405.47" width="0.81" height="20.28" style="fill: rgb(38, 50, 56); transform-origin: 226.715px 415.61px;" id="eln010f3fzxnt" class="animable"></rect><rect x="227.89" y="405.47" width="0.81" height="20.28" style="fill: rgb(38, 50, 56); transform-origin: 228.295px 415.61px;" id="elkrfc96bpygl" class="animable"></rect><rect x="223.72" y="405.47" width="1.62" height="20.28" style="fill: rgb(38, 50, 56); transform-origin: 224.53px 415.61px;" id="elku59u6qw5io" class="animable"></rect><rect x="208.49" y="405.47" width="1.62" height="20.28" style="fill: rgb(38, 50, 56); transform-origin: 209.3px 415.61px;" id="el783uui5k2em" class="animable"></rect><rect x="221.19" y="405.47" width="1.62" height="20.28" style="fill: rgb(38, 50, 56); transform-origin: 222px 415.61px;" id="el6bmn8oc4f7p" class="animable"></rect><rect x="235.62" y="405.47" width="1.62" height="20.28" style="fill: rgb(38, 50, 56); transform-origin: 236.43px 415.61px;" id="el67xbcwno3kf" class="animable"></rect><rect x="258.16" y="405.47" width="0.81" height="20.28" style="fill: rgb(38, 50, 56); transform-origin: 258.565px 415.61px;" id="elkkba92m0hzn" class="animable"></rect><rect x="262.65" y="405.47" width="3.24" height="20.28" style="fill: rgb(38, 50, 56); transform-origin: 264.27px 415.61px;" id="eluwwi1hdj8yo" class="animable"></rect><rect x="272.92" y="405.47" width="3.24" height="20.28" style="fill: rgb(38, 50, 56); transform-origin: 274.54px 415.61px;" id="elmejdworfo6" class="animable"></rect><rect x="277.13" y="405.47" width="3.24" height="20.28" style="fill: rgb(38, 50, 56); transform-origin: 278.75px 415.61px;" id="elyt1t5q389ki" class="animable"></rect><rect x="269.59" y="405.47" width="0.81" height="20.28" style="fill: rgb(38, 50, 56); transform-origin: 269.995px 415.61px;" id="el8mklfssrkai" class="animable"></rect><rect x="271.17" y="405.47" width="0.81" height="20.28" style="fill: rgb(38, 50, 56); transform-origin: 271.575px 415.61px;" id="elmc7jlnorwaa" class="animable"></rect><rect x="267.01" y="405.47" width="1.62" height="20.28" style="fill: rgb(38, 50, 56); transform-origin: 267.82px 415.61px;" id="elxpukrzv6cbh" class="animable"></rect><rect x="259.9" y="405.47" width="1.62" height="20.28" style="fill: rgb(38, 50, 56); transform-origin: 260.71px 415.61px;" id="el0ssvsiu1nfoh" class="animable"></rect><rect x="281.4" y="405.47" width="1.62" height="20.28" style="fill: rgb(38, 50, 56); transform-origin: 282.21px 415.61px;" id="el0k1na7vl7m45" class="animable"></rect><rect x="218.16" y="376.96" width="41.54" height="2.29" style="fill: rgb(38, 50, 56); transform-origin: 238.93px 378.105px;" id="elryqbnukufe" class="animable"></rect><path d="M446.07,427.48a1,1,0,0,1-.38.82c-7,6.19-21.09,8.33-35.67,8.33H390.46c14.58,0,28.63-2.14,35.69-8.33a1,1,0,0,0,.36-.82c-.06-2.55-6.81-7.82-14.62-13.93-14.31-11.17-33.89-26.48-33.89-41,0-14,8.78-36.75,18.92-63.11,14.68-38.15,31.34-81.39,28.13-114.16-2.87-29.34-41-94.93-76.05-121.81-7.67-5.88-14.08-8.84-19.14-8.84h19.55c5.06,0,11.48,3,19.15,8.84,35.05,26.88,73.17,92.47,76,121.81,3.21,32.77-13.44,76-28.13,114.16-10.15,26.36-18.91,49.12-18.91,63.11,0,14.55,19.58,29.86,33.88,41C439.25,419.66,446,424.93,446.07,427.48Z" style="fill: rgb(255, 199, 39); transform-origin: 387.965px 250.63px;" id="el2ttnddg7l36" class="animable"></path><g id="elryx92bsdiq"><g style="opacity: 0.2; transform-origin: 387.965px 250.63px;" class="animable"><path d="M446.07,427.48a1,1,0,0,1-.38.82c-7,6.19-21.09,8.33-35.67,8.33H390.46c14.58,0,28.63-2.14,35.69-8.33a1,1,0,0,0,.36-.82c-.06-2.55-6.81-7.82-14.62-13.93-14.31-11.17-33.89-26.48-33.89-41,0-14,8.78-36.75,18.92-63.11,14.68-38.15,31.34-81.39,28.13-114.16-2.87-29.34-41-94.93-76.05-121.81-7.67-5.88-14.08-8.84-19.14-8.84h19.55c5.06,0,11.48,3,19.15,8.84,35.05,26.88,73.17,92.47,76,121.81,3.21,32.77-13.44,76-28.13,114.16-10.15,26.36-18.91,49.12-18.91,63.11,0,14.55,19.58,29.86,33.88,41C439.25,419.66,446,424.93,446.07,427.48Z" id="elo1jivqjbsn" class="animable" style="transform-origin: 387.965px 250.63px;"></path></g></g><path d="M409.9,437.62H390.35c-18.47,0-37.7-3.38-44.89-6.34-14.3-5.89-2.2-100.94,7.53-177.31,5.33-41.9,9.93-78.09,8.14-85.23-3.36-13.3-15.57-33-32.66-52.77-14.28-16.48-28.17-28.41-33-28.41H315c4.85,0,18.74,11.93,33,28.41,17.09,19.74,29.3,39.47,32.66,52.77,1.8,7.14-2.8,43.33-8.14,85.23-9.72,76.37-21.83,171.42-7.53,177.31C372.21,434.24,391.43,437.62,409.9,437.62Z" style="fill: rgb(255, 199, 39); transform-origin: 352.685px 262.59px;" id="el8vwohebolj7" class="animable"></path><g id="el4nxcsye7hd"><g style="opacity: 0.1; transform-origin: 352.685px 262.59px;" class="animable"><path d="M409.9,437.62H390.35c-18.47,0-37.7-3.38-44.89-6.34-14.3-5.89-2.2-100.94,7.53-177.31,5.33-41.9,9.93-78.09,8.14-85.23-3.36-13.3-15.57-33-32.66-52.77-14.28-16.48-28.17-28.41-33-28.41H315c4.85,0,18.74,11.93,33,28.41,17.09,19.74,29.3,39.47,32.66,52.77,1.8,7.14-2.8,43.33-8.14,85.23-9.72,76.37-21.83,171.42-7.53,177.31C372.21,434.24,391.43,437.62,409.9,437.62Z" id="elz8t1fgiqthm" class="animable" style="transform-origin: 352.685px 262.59px;"></path></g></g><path d="M307.39,89.52H287.84a26.13,26.13,0,0,1,6.91-2.93H314.3A26.13,26.13,0,0,0,307.39,89.52Z" style="fill: rgb(255, 199, 39); transform-origin: 301.07px 88.055px;" id="elbgnupi5mgv" class="animable"></path><g id="el1qwros6m5bq"><g style="opacity: 0.2; transform-origin: 301.07px 88.055px;" class="animable"><path d="M307.39,89.52H287.84a26.13,26.13,0,0,1,6.91-2.93H314.3A26.13,26.13,0,0,0,307.39,89.52Z" id="el5h23caodm6u" class="animable" style="transform-origin: 301.07px 88.055px;"></path></g></g><path d="M432,412.7c8.68,6.79,15,11.68,15,14.75a2.09,2.09,0,0,1-.73,1.66c-7.21,6.32-21.56,8.51-36.42,8.51-18.47,0-37.69-3.38-44.89-6.34-14.3-5.89-2.19-100.94,7.53-177.31,5.34-41.9,9.94-78.09,8.14-85.23-3.36-13.3-15.57-33-32.66-52.77-14.27-16.48-28.16-28.41-33-28.41-5.79,1.22-13.48,6.82-18.82,11.14-5.63,4.76-13.51,12-13.64,12.07l-1.29-.2c.27-.25,6.35-5.83,8.33-7.56.61-.57,2.77-2.51,5.69-4.9,13.36-11.34,37.94-31,51.24-34.23a12.22,12.22,0,0,1,2.88-.33c5.28,0,11.89,3,19.72,9,29.79,22.84,73,87.62,76.45,122.56,3.24,33-13.46,76.4-28.19,114.67-10.11,26.26-18.84,48.93-18.84,62.71C398.54,386.54,417.89,401.66,432,412.7Zm13.68,15.59a1,1,0,0,0,.37-.81c-.07-2.55-6.82-7.82-14.63-13.93-14.3-11.17-33.88-26.48-33.88-41,0-14,8.76-36.75,18.91-63.11,14.69-38.15,31.34-81.38,28.13-114.16-2.87-29.34-41-94.93-76-121.82-7.67-5.87-14.09-8.83-19.14-8.83a11.67,11.67,0,0,0-2.69.31c-9.76,2.38-26.16,14.14-39.34,24.61a26.13,26.13,0,0,1,6.91-2.93c12.12-.07,59.92,52.53,67.32,81.88,1.85,7.35-2.55,41.9-8.11,85.64-9.17,72-21.72,170.6-8.14,176.2,7.15,2.94,26.32,6.32,44.65,6.32,14.58,0,28.63-2.14,35.68-8.34" style="fill: rgb(255, 199, 39); transform-origin: 364.111px 250.585px;" id="el983lbn2ie1a" class="animable"></path><path d="M349.4,63.55a11.71,11.71,0,0,0-2.88.34c-13.3,3.24-37.88,22.88-51.24,34.21-2.92,2.4-5.08,4.34-5.69,4.9-2,1.73-8.07,7.32-8.34,7.57L270,103c.6-.56,2.77-2.5,5.68-4.9,13.37-11.33,37.94-31,51.24-34.21a11.77,11.77,0,0,1,2.88-.34Z" style="fill: rgb(255, 199, 39); transform-origin: 309.7px 87.0599px;" id="eloge0ujuqz2j" class="animable"></path><g id="elivjolg6btp"><g style="opacity: 0.1; transform-origin: 309.7px 87.0599px;" class="animable"><path d="M349.4,63.55a11.71,11.71,0,0,0-2.88.34c-13.3,3.24-37.88,22.88-51.24,34.21-2.92,2.4-5.08,4.34-5.69,4.9-2,1.73-8.07,7.32-8.34,7.57L270,103c.6-.56,2.77-2.5,5.68-4.9,13.37-11.33,37.94-31,51.24-34.21a11.77,11.77,0,0,1,2.88-.34Z" id="elewj3ihjcxx" class="animable" style="transform-origin: 309.7px 87.0599px;"></path></g></g></g><g id="freepik--Character--inject-50" class="animable" style="transform-origin: 245.703px 271.844px;"><path d="M221.5,203.68c-10.3,13.19-3.69,28.06-7.19,37.56-2.14,5.8-11.39,13.35-12.25,19.72-1.41,10.46,7.59,12.3,6.8,18-1.1,8.06-11.3,9.51-10.63,22.19S215.1,324.19,248,321.25s48.18-18.29,47.22-29-12.36-12-14.66-19.66c-1.47-4.89,4.43-9.7,2.92-19s-11.07-10.42-13.92-18S267,208.4,253.58,201,226.58,197.17,221.5,203.68Z" style="fill: rgb(38, 50, 56); transform-origin: 246.73px 259.312px;" id="el4qac2ou70af" class="animable"></path><path d="M223,203.67a27,27,0,0,0-6.34,11.21,59.23,59.23,0,0,0-2,13.57,35.28,35.28,0,0,1-1,8.07,19.82,19.82,0,0,1-3.24,6.21c-2.85,3.84-6.52,7.07-8.93,11.24-2.28,4-3.68,8.89-1.58,13.22,1.15,2.35,3.19,4.05,4.68,6.16s2.34,4.65.83,6.85c-1.3,1.89-3.49,3.07-5.05,4.72a20.41,20.41,0,0,0-3.78,5.5,16,16,0,0,0-.46,13c3.91,9.63,14.44,13.42,23.83,15.26,1.31.26,2.63.5,3.94.73.2,0,.31-.26.1-.31-9.49-2.14-20.5-4.67-25.81-13.72a14.94,14.94,0,0,1-1.1-13.21,19,19,0,0,1,3.62-5.77c1.49-1.64,3.35-2.84,4.88-4.43a6,6,0,0,0,1.67-5.83c-.59-2.33-2.15-4.15-3.69-5.92s-3.08-3.79-3.41-6.32a13.27,13.27,0,0,1,1.27-6.95c1.94-4.38,5.44-7.7,8.45-11.33s5.24-7.61,5.64-12.41c.2-2.43.14-4.87.25-7.31a63.47,63.47,0,0,1,.63-6.74,31.05,31.05,0,0,1,4.54-12.58,17.58,17.58,0,0,1,2.22-2.72C223.23,203.73,223.09,203.57,223,203.67Z" style="fill: rgb(38, 50, 56); transform-origin: 209.541px 261.524px;" id="eloautkwjzyu" class="animable"></path><path d="M295.08,284.33a12.15,12.15,0,0,0-3.17-4.24c-1.4-1.19-3-2.11-4.5-3.17a9.4,9.4,0,0,1-3.51-3.81c-.82-2-.36-4.12.25-6.08a44.49,44.49,0,0,0,1.75-6.19,20.54,20.54,0,0,0-5.64-17.55c-1.46-1.58-3-3-4.51-4.6a26.31,26.31,0,0,1-4.11-5.67c-2.43-4.56-3.77-9.6-5.94-14.27a78.6,78.6,0,0,0-8.17-13.54c-.08-.1-.23,0-.15.14a69.26,69.26,0,0,1,7.23,12.26c1.89,4.1,3.16,8.41,4.8,12.6a33.32,33.32,0,0,0,2.9,5.94,33.84,33.84,0,0,0,3.88,4.82c2.89,3.1,5.84,6.15,7.29,10.23a20.1,20.1,0,0,1,.35,12.46c-1,3.54-2.7,7.54-.47,11,1.89,2.91,5.3,4.2,7.84,6.42a13,13,0,0,1,4.23,9.73c.08,9.36-8,15.65-16.4,17.8a.21.21,0,0,0,.09.41c7.33-1.57,14.67-6.41,16.73-14A15.86,15.86,0,0,0,295.08,284.33Z" style="fill: rgb(38, 50, 56); transform-origin: 276.897px 257.097px;" id="elmpskml1cb0m" class="animable"></path><path d="M285.26,350.18h-86.4l1.83-10.1.38-2.06,1.17-6.4.09-.51,2-10.72.12-.67,1.09-6v-.1l.17-.87.16-.94s-.36-.66-.87-1.79c-.1-.23-.21-.47-.31-.72-.42-1-.9-2.26-1.34-3.69-.26-.82-.5-1.7-.7-2.63a18.89,18.89,0,0,1,1.92-15c.7-1.3,1.52-2.67,2.44-4.11,6.93-10.75,19.26-24.21,22.25-27,.31-.28.62-.57.94-.83h0a18.83,18.83,0,0,1,2.11-1.56c4.63-3,10.31-4.15,15.77-1.86a17.54,17.54,0,0,1,3.89,2.28c.28.21.55.43.84.67s.73.64,1.1,1c.51.52,1,1.06,1.54,1.65a1.76,1.76,0,0,1,.24.3c.42.48.84,1,1.25,1.54,8.93,11.75,16,34,20.81,53.48C282.63,333.33,285.26,350.18,285.26,350.18Z" style="fill: rgb(255, 199, 39); transform-origin: 242.06px 300.795px;" id="el8gtfed0cyst" class="animable"></path><path d="M230.18,256.08s-3.4,12-.05,12.81,11.4-5.18,21.83-14C252,254.93,242,244.13,230.18,256.08Z" style="fill: rgb(211, 118, 106); transform-origin: 240.307px 259.707px;" id="elrkf4bgvsb4" class="animable"></path><path d="M247.9,254.13c-.43,1.38-7.82,10.07-14.25,9.31-2.09-.25-1.23-11.74-1.23-11.74l-.13-.86-1.82-12.08,14.6-8,2.1-1s.28,3.34.59,7.5c0,.19,0,.38,0,.59s0,.45.06.67c.06.62.11,1.26.15,1.89s.06,1,.08,1.46,0,1,.07,1.51A78.64,78.64,0,0,1,247.9,254.13Z" style="fill: rgb(211, 118, 106); transform-origin: 239.34px 246.623px;" id="elczxuj2qoy4t" class="animable"></path><path d="M247.76,237.24a24.54,24.54,0,0,1-15.47,13.6l-1.82-12.08,14.6-8,2.1-1S247.45,233.08,247.76,237.24Z" style="fill: rgb(38, 50, 56); transform-origin: 239.115px 240.3px;" id="elfm8hmnne9p5" class="animable"></path><path d="M215.62,218.61c-3.45,21.16,8.84,25.61,13.4,26.35,4.15.67,18.34,2.42,23.95-18.27s-3.14-29-12.53-31S219.06,197.45,215.62,218.61Z" style="fill: rgb(211, 118, 106); transform-origin: 234.876px 220.263px;" id="eliestz1t3yw" class="animable"></path><path d="M221.56,215.36a14.37,14.37,0,0,0,1.47-.17,2.48,2.48,0,0,0,1.47-.47.75.75,0,0,0,.08-.92,1.88,1.88,0,0,0-1.82-.61,2.72,2.72,0,0,0-1.82.82A.81.81,0,0,0,221.56,215.36Z" style="fill: rgb(38, 50, 56); transform-origin: 222.717px 214.254px;" id="el9qprs6x8bkr" class="animable"></path><path d="M235.81,217.38c-.5-.11-.94-.29-1.42-.44a2.41,2.41,0,0,1-1.36-.72.76.76,0,0,1,.09-.93A1.9,1.9,0,0,1,235,215a2.81,2.81,0,0,1,1.64,1.14A.81.81,0,0,1,235.81,217.38Z" style="fill: rgb(38, 50, 56); transform-origin: 234.842px 216.133px;" id="el7m3kg3j40s4" class="animable"></path><path d="M232.47,222.5c0-.05.1.08.09.14-.21,1.45-.21,3.14,1.05,3.77,0,0,0,.09,0,.08C232,226.08,232,223.84,232.47,222.5Z" style="fill: rgb(38, 50, 56); transform-origin: 232.904px 224.49px;" id="elgz2rfqxpul6" class="animable"></path><path d="M233.94,221.14c2.35.09,2,4.79-.19,4.7S232,221.06,233.94,221.14Z" style="fill: rgb(38, 50, 56); transform-origin: 233.92px 223.49px;" id="el6e5pb21xb2s" class="animable"></path><path d="M234.84,221.46c.39.29.76.79,1.25.88s1-.36,1.45-.81c0,0,.08,0,.07.06-.05.91-.47,1.8-1.44,1.86s-1.47-.78-1.62-1.71C234.52,221.57,234.68,221.34,234.84,221.46Z" style="fill: rgb(38, 50, 56); transform-origin: 236.079px 222.44px;" id="elpx0u7n3akpf" class="animable"></path><path d="M223.87,221.27c0-.05-.12.06-.12.12-.06,1.46-.36,3.13-1.71,3.52,0,0,0,.09,0,.08C223.67,224.87,224.05,222.66,223.87,221.27Z" style="fill: rgb(38, 50, 56); transform-origin: 222.975px 223.124px;" id="el3xhvqoqsq05" class="animable"></path><path d="M222.67,219.66c-2.33-.33-2.83,4.35-.67,4.66S224.63,220,222.67,219.66Z" style="fill: rgb(38, 50, 56); transform-origin: 222.266px 221.989px;" id="elhgalrqw01as" class="animable"></path><path d="M221.66,219.87c-.4.2-.81.62-1.26.6s-.84-.57-1.11-1.09c0-.06-.07,0-.08,0-.12.89.08,1.86.92,2.12s1.42-.46,1.73-1.33C221.92,220.05,221.82,219.78,221.66,219.87Z" style="fill: rgb(38, 50, 56); transform-origin: 220.528px 220.454px;" id="eldvc9ayf7lb" class="animable"></path><path d="M230.6,233.6c-.32.37-.63.86-1.16,1a4,4,0,0,1-1.59-.24.05.05,0,0,0-.06.08,2,2,0,0,0,1.91.64,1.55,1.55,0,0,0,1-1.38C230.76,233.57,230.64,233.54,230.6,233.6Z" style="fill: rgb(38, 50, 56); transform-origin: 229.243px 234.346px;" id="el15zs79foabn" class="animable"></path><path d="M224.87,228s-.49,2.15-.58,3.17c0,.1.24.16.58.21,0,0,0,0,0,0a4.89,4.89,0,0,0,4.89-1.4.11.11,0,0,0-.14-.16,7.33,7.33,0,0,1-4.56.88c0-.29,1-3.64.81-3.67a9.09,9.09,0,0,0-2.38.32c.9-4.5,2.5-8.81,3.32-13.31a.14.14,0,0,0-.26-.09c-2,4.41-3.14,9.57-4.18,14.19C222.27,228.67,224.45,228.09,224.87,228Z" style="fill: rgb(38, 50, 56); transform-origin: 226.073px 222.717px;" id="elxwdhdlqorrs" class="animable"></path><path d="M225.07,231a6,6,0,0,0,2.08,2.18,2.71,2.71,0,0,0,1.6.33c1.21-.13,1.39-1.19,1.31-2.14a6.44,6.44,0,0,0-.31-1.47A7.66,7.66,0,0,1,225.07,231Z" style="fill: rgb(38, 50, 56); transform-origin: 227.573px 231.712px;" id="ellsvxyvockp" class="animable"></path><path d="M227.15,233.13a2.71,2.71,0,0,0,1.6.33c1.21-.13,1.39-1.19,1.31-2.14A2.78,2.78,0,0,0,227.15,233.13Z" style="fill: rgb(255, 154, 187); transform-origin: 228.613px 232.389px;" id="eltlj8nza4cq" class="animable"></path><path d="M250.78,226.67c-4.85-.6-3.79-8.24-3.79-8.24s-5.44-1.23-4.66-10.15c0,0-3.36,5-11,5.11-1.61,0,4.22-3.37,4.22-3.37s-7.1,4.89-18.57,1.16c-.81-.27,1.86-13.76,11.65-16.76s18.53,1.82,23.46,8.39c0,0,6.35,4,6.26,10.52S252.67,226.9,250.78,226.67Z" style="fill: rgb(38, 50, 56); transform-origin: 237.597px 210.092px;" id="elxu2kfnchrr" class="animable"></path><path d="M241.93,223.33a6.94,6.94,0,0,0-4.83-5.74c-.32-.09-.65-.16-1-.22h0a5.51,5.51,0,0,0-.57-.06l-.47,0a6.93,6.93,0,0,0-6.49,4.48c0,.14-.1.27-.14.41s-.11.38-.15.57a6.93,6.93,0,0,0,4.74,8.07,7.06,7.06,0,0,0,1.69.3,6.94,6.94,0,0,0,6.95-4.88,6.85,6.85,0,0,0,.3-2A7.14,7.14,0,0,0,241.93,223.33ZM240.81,226a6,6,0,1,1-5.45-7.75,5.5,5.5,0,0,1,1.47.27A6,6,0,0,1,240.81,226Z" style="fill: rgb(255, 199, 39); transform-origin: 235.046px 224.229px;" id="elautbjvc9wps" class="animable"></path><path d="M224.74,218.86a6.57,6.57,0,0,0-.52-1.47,5.22,5.22,0,0,0-1.86-2.11,3.87,3.87,0,0,0-1.44-.54l-.17,0a4.56,4.56,0,0,0-3.8,1.46h0a6.44,6.44,0,0,0-.9,1.1,3.73,3.73,0,0,0-.25.39l0,0a9.14,9.14,0,0,0-1.06,3,8.65,8.65,0,0,0,.2,3.82c0,.14.08.27.12.41h0a5.84,5.84,0,0,0,.34.76,6.1,6.1,0,0,0,.37.67,4.41,4.41,0,0,0,2.92,2,3.26,3.26,0,0,0,.45.05,4.68,4.68,0,0,0,3.58-1.57,7.33,7.33,0,0,0,1.42-2.05h0a9,9,0,0,0,.75-2.39c0-.16,0-.32,0-.46s0-.21,0-.31h0c0-.26,0-.51,0-.76A8.2,8.2,0,0,0,224.74,218.86Zm-.79,3.39a3,3,0,0,1-.09.45.31.31,0,0,1,0,.11,7.77,7.77,0,0,1-.37,1.18c-.08.19-.16.37-.25.54v0c-1,2-2.71,3.2-4.42,2.92a4,4,0,0,1-3-3,7.75,7.75,0,0,1-.22-3.56,8.33,8.33,0,0,1,.93-2.65,6.22,6.22,0,0,1,1.05-1.37,3.84,3.84,0,0,1,2.83-1.24l.34,0a3.7,3.7,0,0,1,2.63,2.16,7,7,0,0,1,.66,3.42A5.87,5.87,0,0,1,224,222.25Z" style="fill: rgb(255, 199, 39); transform-origin: 219.757px 221.56px;" id="el7cfbfbq73dw" class="animable"></path><path d="M228.56,223l.7-.6c-.89-1-3.09-2.61-5-1.1l.56.73C226.53,220.69,228.47,222.92,228.56,223Z" style="fill: rgb(255, 199, 39); transform-origin: 226.76px 221.841px;" id="elke5y4qcp7qg" class="animable"></path><path d="M258.66,229.82l.88-.28c-.13-.41-1.35-4-3.33-4.7s-14.27-1.51-14.8-1.54l-.06.92c3.56.25,13.13,1,14.56,1.5S258.34,228.83,258.66,229.82Z" style="fill: rgb(255, 199, 39); transform-origin: 250.445px 226.56px;" id="elzhmltc2lcgo" class="animable"></path><path d="M247.87,227.69s5.16-6.32,8.07-4.43-1.33,11.3-5,12.36a3.64,3.64,0,0,1-4.7-2.31Z" style="fill: rgb(211, 118, 106); transform-origin: 251.574px 229.372px;" id="eluadlzcrvleq" class="animable"></path><path d="M254.66,225.92c.05,0,.06.08,0,.1-2.57.82-4.06,3-5.15,5.36a2,2,0,0,1,3-.32c.06.05,0,.15-.07.13a2.25,2.25,0,0,0-2.51.59,10.92,10.92,0,0,0-1.32,1.9c-.13.21-.53.06-.42-.19a.14.14,0,0,1,0-.06C248.42,230.25,251.22,226,254.66,225.92Z" style="fill: rgb(38, 50, 56); transform-origin: 251.436px 229.85px;" id="eljtqp0zerxq" class="animable"></path><g id="el153gqivjf41"><rect x="195.74" y="292.26" width="60.03" height="46.12" style="fill: rgb(55, 71, 79); transform-origin: 225.755px 315.32px; transform: rotate(-85.9958deg);" class="animable"></rect></g><g id="elh81jxlxqent"><rect x="216.7" y="282.28" width="21.86" height="6.62" style="fill: rgb(166, 166, 166); transform-origin: 227.63px 285.59px; transform: rotate(-176.1deg);" class="animable"></rect></g><polygon points="221.9 281.88 224.59 282.06 224.79 279.02 231.32 279.46 231.11 282.51 233.8 282.69 234.18 277.14 222.24 276.33 221.9 281.88" style="fill: rgb(166, 166, 166); transform-origin: 228.04px 279.51px;" id="elfeh6x4z6rj" class="animable"></polygon><path d="M294.19,350.18h-47c-3-.69-5.92-1.42-8.51-2.12-1.71-.46-3.29-.91-4.72-1.34l-1.87-.6a.84.84,0,0,1-.42-.31c-1.83-2.32,2.06-15.68,6.1-24.07,2-4.05,3.95-6.94,5.34-6.86a1,1,0,0,1,.25,0c.71.24,1.59.51,2.57.78l2.85.78c4.21,1.11,9.14,2.27,11.84,2.87h0c1.12.24,1.84.39,2,.39s.13-.29.07-.86c-.1-1.06-.49-3.07-1.06-5.73a.29.29,0,0,0,0-.09c-2.43-11.27-8.15-33.85-10.24-44.18-2.06-10.13-.57-13.18,2.52-12.3,2.87.82,7.12,5.05,11.17,10.1,8.4,10.47,15.84,24.82,21.23,38.87.07.21.16.43.24.64.17.44.34.9.5,1.34C293.66,325.45,296.83,342.57,294.19,350.18Z" style="fill: rgb(211, 118, 106); transform-origin: 263.162px 303.288px;" id="elnwzw3be4vu" class="animable"></path><path d="M201.47,304c-2.15,2.8-.06,5.79-.06,5.79a7.55,7.55,0,0,0-3.89,3.32c-1.41,2.76,2.3,6.18,2.3,6.18a9.3,9.3,0,0,0-3.55,4.15c-1.08,2.78,2.18,6.76,2.18,6.76a8.14,8.14,0,0,0-.82,5.62c1.3,5.06,8.9,7.48,13.72,9.06s20,1.56,22.86,1.85l10.43-30.84s-19.59-13.25-25.52-14.31C214.12,300.7,203.89,300.88,201.47,304Z" style="fill: rgb(211, 118, 106); transform-origin: 220.345px 323.926px;" id="elhplpy5bpuhf" class="animable"></path><path d="M201.79,309.38c5.54-.33,10.88,1,16.28,2a.1.1,0,0,1,0,.19c-5.36-1.08-10.86-1.08-16.25-1.95A.13.13,0,0,1,201.79,309.38Z" style="fill: rgb(38, 50, 56); transform-origin: 209.931px 310.449px;" id="elc07ra7kkm1b" class="animable"></path><path d="M200.06,318.93a14.43,14.43,0,0,1,3.73.63c1.3.32,2.6.66,3.89,1,2.59.72,5.16,1.49,7.7,2.35.12,0,.09.21,0,.18-2.58-.71-5.17-1.38-7.78-2-1.3-.3-2.61-.59-3.92-.87a17,17,0,0,1-3.66-1A.19.19,0,0,1,200.06,318.93Z" style="fill: rgb(38, 50, 56); transform-origin: 207.715px 321.011px;" id="elmm4occu3h9o" class="animable"></path><path d="M198.56,330.24a10.13,10.13,0,0,1,3.32.75c1.18.35,2.35.7,3.52,1,2.36.68,4.71,1.35,7.08,2a.09.09,0,1,1,0,.18c-2.41-.59-4.83-1.14-7.24-1.76-1.19-.3-2.37-.6-3.55-.92a9.29,9.29,0,0,1-3.13-1.11A.07.07,0,0,1,198.56,330.24Z" style="fill: rgb(38, 50, 56); transform-origin: 205.53px 332.205px;" id="eln83yffe9ab" class="animable"></path><path d="M295.59,350.18H241.45c-1.55-.37-2.53-.63-2.9-.73l-.17-.05.31-1.34.38-1.73,5.57-24.83,1.3-5.8.06-.25v-.07l2.81.68c4.35,1,12.26,2.83,12.62,2.56a.48.48,0,0,0,.14-.23.43.43,0,0,0,0-.11c.54-2.57-3.8-18.39-7.35-33-1.69-6.92-3.2-13.58-3.93-18.4-1.15-7.58-.09-11.14,2.47-11.29,2.71-.17,7.11,3.53,12.36,10.38a170.35,170.35,0,0,1,21.73,39.21c.08.22.17.44.26.66.15.4.31.78.45,1.18,4.15,10.95,7.26,22.81,8,34.62C295.84,344.89,296.14,347.81,295.59,350.18Z" style="fill: rgb(255, 199, 39); transform-origin: 267.139px 302.882px;" id="elppyynp4crol" class="animable"></path><path d="M246.09,349.76c3.92-13.38,6-28,6.57-30.57a.1.1,0,0,0-.19,0c-.41,2.51-4.62,19-6.59,30.56C245.85,349.87,246.05,349.89,246.09,349.76Z" style="fill: rgb(38, 50, 56); transform-origin: 249.268px 334.485px;" id="elu1cle7ki4gr" class="animable"></path><path d="M277.77,322.69a27.85,27.85,0,0,0-4-1.19c-1.26-.33-2.52-.69-3.78-1l-1.63-.43h.16l2.25-.13c.75-.05,1.5-.16,2.25-.15.12,0,.13-.2,0-.19-.75,0-1.49,0-2.24-.05s-1.55,0-2.33,0-1.36,0-2,0c-1.22-.31-2.44-.61-3.66-.89-.34-2.48-1-5-1.54-7.42s-1.17-5.11-1.82-7.66-1.31-5-2.05-7.45c-.37-1.24-2.26-8.8-2.92-10.79,0-.12-.2-.08-.17.07.31,2,2.24,9.74,2.51,11,.2.91.4,1.82.61,2.74l-.1-.15-1.32-2.11a50.2,50.2,0,0,1-2.51-4.39c-.06-.13-.26,0-.2.1.69,1.57,1.35,3.15,2.1,4.69.38.77.77,1.53,1.19,2.27a11.93,11.93,0,0,0,1.37,2.11l0,0c.17.75.33,1.5.5,2.25.56,2.51,1.13,5,1.69,7.53.51,2.3.92,4.66,1.53,6.94-2.5-.56-5-1.07-7.54-1.59-1.28-.27-2.57-.53-3.85-.78s-2.84-.4-4.18-.76c-.12,0-.18.16-.07.18,1.36.27,2.71.81,4,1.16l3.78,1c2.67.69,5.34,1.39,8,2s5.32,1.17,8,1.71l4,.79a27.44,27.44,0,0,0,3.92.67A.07.07,0,0,0,277.77,322.69Z" style="fill: rgb(38, 50, 56); transform-origin: 261.867px 304.02px;" id="elj5jux5motco" class="animable"></path><path d="M242.28,350.18h-1.66c-1-.3-1.68-.49-2-.58a.09.09,0,0,1-.06-.15s0,0,.09,0C239.72,349.66,240.94,349.92,242.28,350.18Z" style="fill: rgb(38, 50, 56); transform-origin: 240.408px 349.815px;" id="elihu1ucp61rn" class="animable"></path></g><g id="freepik--Plant--inject-50" class="animable" style="transform-origin: 90.0903px 355.488px;"><path d="M97.57,358.1a66.51,66.51,0,0,0-2.14,12.08c.11.2.09.95,0,.74,0,.67-1,.55-1-.11,0-.43,0-.85,0-1.27-2.36-2.93-5.79-4.78-8.56-7.33a16,16,0,0,1-4.69-7.46c-2.29-7.91-.14-16.3-2.9-24.19-2.38-6.81-6.65-12.73-10.27-18.9-3.81-6.52-6.63-13.37-6.91-21-.23-5.85.47-13.65,4.93-18,4.72-4.65,10.57-1.16,14.19,3,10.49,12,15.34,27.24,17.3,42.79,1.08,8.6,2.2,17.26,1.94,25.95A70,70,0,0,1,97.57,358.1Z" style="fill: rgb(255, 199, 39); transform-origin: 80.2798px 320.907px;" id="eli2w4jbf0n3n" class="animable"></path><path d="M95.48,373.34A149.21,149.21,0,0,0,95.19,349s0,0,0-.09c.13-6.59.65-13.15.4-19.75a117.21,117.21,0,0,0-2.91-21.18c0-.08-.14-.06-.12,0a138.58,138.58,0,0,1,2.29,20.71c.13,3.73.11,7.45-.09,11.17-.06,1.21-.18,2.43-.26,3.65h0a130.52,130.52,0,0,0-19.6-51.88c-.14-.21-.52,0-.39.24a135.41,135.41,0,0,1,16,38.46c-5-9.34-12.65-17-18.3-26,0-.05-.12,0-.09.05,5.08,10,13.46,17.87,18.8,27.72q1.39,6,2.26,12.13a136.12,136.12,0,0,1,1.21,16.86c-3.07-5.74-6.26-11.23-8.77-17.3-.07-.16-.3,0-.24.11,2.13,6.31,5,13.1,9,18.48,0,4-.1,8-.33,12-.63,10.64-2.45,21.14-3.29,31.75a.25.25,0,0,0,.49.05A244.2,244.2,0,0,0,95.48,373.34Z" style="fill: rgb(38, 50, 56); transform-origin: 83.979px 348.953px;" id="el9uh67b6j8la" class="animable"></path><path d="M84.17,291.26c0-.08-.14,0-.11.05,1.94,5.38,3,10.83,4.44,16.34a.2.2,0,0,0,.4-.07C88.33,302,86.34,296.41,84.17,291.26Z" style="fill: rgb(38, 50, 56); transform-origin: 86.4793px 299.522px;" id="eledw1jg8bhjc" class="animable"></path><path d="M133.54,313.79a81.88,81.88,0,0,1-4.47,9.18c-3.5,6.36-7.16,12.19-7.82,19.59-.29,3.3-.4,6.62-1.4,9.81a29.76,29.76,0,0,1-3.91,7.68c-3.8,5.52-8.54,10.29-12,16a67.4,67.4,0,0,0-8,19.31c-.09.37-.68.27-.59-.1a.13.13,0,0,0,0-.09.09.09,0,0,1,0-.07c-.56-15.87.71-31.87,5.55-47.07a163.61,163.61,0,0,1,7.69-19.58c2.59-5.52,5.83-10.82,10.38-14.94,2.95-2.66,9.36-7.7,13.56-5C134.48,309.78,134.33,311.81,133.54,313.79Z" style="fill: rgb(255, 199, 39); transform-origin: 114.658px 351.665px;" id="eltpq7ubamlpp" class="animable"></path><path d="M117.59,349.77A129.79,129.79,0,0,1,108.36,363c-1.53,2-3.09,4-4.63,6-.72,1-1.53,1.9-2.2,2.92.42-1.67.83-3.35,1.26-5,2-8,4-16.11,7.06-23.82a160.77,160.77,0,0,1,11-21.6c.11-.19-.19-.32-.3-.14-3.35,5.51-6.75,11-9.57,16.84a87.48,87.48,0,0,0-4.07,10,154.89,154.89,0,0,1,5.41-21.35,0,0,0,1,0-.09,0,73,73,0,0,0-5.62,22.2v0q-1,3.1-1.91,6.24c-2.5,8.88-4.69,17.85-6.73,26.86a96.82,96.82,0,0,1,1.53-17.65.1.1,0,1,0-.2,0,56.11,56.11,0,0,0-1.54,18.61c-.77,3.42-1.51,6.85-2.25,10.28-1.56,7.32-3.47,14.76-4.38,22.19a.15.15,0,0,0,.29,0c1.09-4,1.74-8.16,2.63-12.21s1.82-8.13,2.76-12.18c1.38-5.91,2.83-11.8,4.3-17.68,1-2.16,2.88-4.07,4.3-5.88,1.57-2,3.13-4,4.65-6a89.52,89.52,0,0,0,7.64-11.81A.08.08,0,0,0,117.59,349.77Z" style="fill: rgb(38, 50, 56); transform-origin: 106.002px 368.483px;" id="ell5af0xlzf6f" class="animable"></path><path d="M118.26,343a83.09,83.09,0,0,0-9,14.34c0,.07.07.14.11.07,3-4.76,6-9.55,9.05-14.32C118.45,343,118.32,342.91,118.26,343Z" style="fill: rgb(38, 50, 56); transform-origin: 113.842px 350.201px;" id="elfszc4z2lxel" class="animable"></path><path d="M50.7,328.84c2.06,3.54,4.41,7.79,3.52,12.05-.56,2.69-2.53,4.88-2.88,7.62-.8,6.06,5.24,10.07,9.61,12.93,10.9,7.15,25.85,13.53,27.83,28.13.07.52,1,.39.9-.12a.29.29,0,0,0,0-.09s.06-.05.06-.09a56,56,0,0,0-.21-22.3c-1.62-7.53-4.91-14.29-8.78-20.9-6.56-11.19-13.51-22.65-23.43-31.22-2.74-2.37-8.36-6.63-10.55-1.28S48.18,324.52,50.7,328.84Z" style="fill: rgb(255, 199, 39); transform-origin: 68.4254px 350.446px;" id="elxh7aoo5jp5a" class="animable"></path><path d="M60.68,352.56c7.22,7.82,18.71,12.21,24.93,21a87.88,87.88,0,0,0-19.16-36,.28.28,0,0,1,.4-.39A71,71,0,0,1,82.5,359.81a101,101,0,0,0-6.74-17.24c-.1-.21.2-.39.32-.19a65.75,65.75,0,0,1,7.27,19.39c8.19,19.84,9,43.1,7.24,64,0,.29-.48.3-.48,0,.48-16.48.21-33.25-3.74-49.34-.08-.34-.17-.67-.26-1-6.77-9.43-18.2-13.8-25.56-22.76C60.48,352.6,60.6,352.47,60.68,352.56Z" style="fill: rgb(38, 50, 56); transform-origin: 75.9439px 381.545px;" id="el9viatq14ipd" class="animable"></path><path d="M59,345.84c3.8,3.48,7.53,7,11.33,10.52,0,0,0,.1-.06.07a55.8,55.8,0,0,1-11.49-10.36C58.65,345.91,58.85,345.7,59,345.84Z" style="fill: rgb(38, 50, 56); transform-origin: 64.534px 351.115px;" id="elsf4meuo2ng" class="animable"></path><path d="M58.4,330.76a119.13,119.13,0,0,0,11.35,15.61c.06.07,0,.16-.09.1A54.92,54.92,0,0,1,58.2,330.88C58.14,330.75,58.32,330.63,58.4,330.76Z" style="fill: rgb(38, 50, 56); transform-origin: 63.9811px 338.597px;" id="elgm8jutknz6a" class="animable"></path><polygon points="75.48 440.53 108.7 440.53 104.23 395.83 80.6 395.83 75.48 440.53" style="fill: rgb(69, 90, 100); transform-origin: 92.09px 418.18px;" id="eljpnzdkc4ae" class="animable"></polygon><polygon points="79.76 403.1 104.96 403.1 104.23 395.83 80.59 395.83 79.76 403.1" style="fill: rgb(38, 50, 56); transform-origin: 92.36px 399.465px;" id="elbonkqicislg" class="animable"></polygon><g id="elrpztibuh39s"><rect x="76.52" y="390.88" width="31.14" height="7.14" style="fill: rgb(69, 90, 100); transform-origin: 92.09px 394.45px; transform: rotate(180deg);" class="animable"></rect></g></g><defs>     <filter id="active" height="200%">         <feMorphology in="SourceAlpha" result="DILATED" operator="dilate" radius="2"></feMorphology>                <feFlood flood-color="#32DFEC" flood-opacity="1" result="PINK"></feFlood>        <feComposite in="PINK" in2="DILATED" operator="in" result="OUTLINE"></feComposite>        <feMerge>            <feMergeNode in="OUTLINE"></feMergeNode>            <feMergeNode in="SourceGraphic"></feMergeNode>        </feMerge>    </filter>    <filter id="hover" height="200%">        <feMorphology in="SourceAlpha" result="DILATED" operator="dilate" radius="2"></feMorphology>                <feFlood flood-color="#ff0000" flood-opacity="0.5" result="PINK"></feFlood>        <feComposite in="PINK" in2="DILATED" operator="in" result="OUTLINE"></feComposite>        <feMerge>            <feMergeNode in="OUTLINE"></feMergeNode>            <feMergeNode in="SourceGraphic"></feMergeNode>        </feMerge>            <feColorMatrix type="matrix" values="0   0   0   0   0                0   1   0   0   0                0   0   0   0   0                0   0   0   1   0 "></feColorMatrix>    </filter></defs></svg>